HIERARCHY
ROOT Hips
{
  OFFSET 46.3413 95.602 7.85589
  CHANNELS 6 Xposition Yposition Zposition Zrotation Xrotation Yrotation
  JOINT spine
  {
    OFFSET 0 7.96568 0.458067
    CHANNELS 3 Zrotation Xrotation Yrotation
    JOINT spine1
    {
      OFFSET 0 10.2431 0
      CHANNELS 3 Zrotation Xrotation Yrotation
      JOINT spine2
      {
        OFFSET 0 9.81475 0
        CHANNELS 3 Zrotation Xrotation Yrotation
        JOINT Neck
        {
          OFFSET 0 25.1986 1.20138
          CHANNELS 3 Zrotation Xrotation Yrotation
          JOINT Head
          {
            OFFSET 0 7.61315 0
            CHANNELS 3 Zrotation Xrotation Yrotation
            End Site
            {
              OFFSET 0 18.4281 -6.07733
            }
          }
        }
        JOINT RightShoulder
        {
          OFFSET -4.1327 10.5992 -0.575451
          CHANNELS 3 Zrotation Xrotation Yrotation
          JOINT RightArm
          {
            OFFSET 0 13.9018 0
            CHANNELS 3 Zrotation Xrotation Yrotation
            JOINT RightArmRoll
            {
              OFFSET 0 7.01788 0
              CHANNELS 3 Zrotation Xrotation Yrotation
              JOINT RightForeArm
              {
                OFFSET 0 20.4406 0
                CHANNELS 3 Zrotation Xrotation Yrotation
                JOINT RightForeArmRoll
                {
                  OFFSET 0 7.87515 0
                  CHANNELS 3 Zrotation Xrotation Yrotation
                  JOINT RightHand
                  {
                    OFFSET 0 15.8037 0
                    CHANNELS 3 Zrotation Xrotation Yrotation
                    End Site
                    {
                      OFFSET 0 0 0
                    }
                  }
                }
              }
            }
          }
        }
        JOINT LeftShoulder
        {
          OFFSET 4.1327 10.5992 -0.575451
          CHANNELS 3 Zrotation Xrotation Yrotation
          JOINT LeftArm
          {
            OFFSET 0 13.9018 0
            CHANNELS 3 Zrotation Xrotation Yrotation
            JOINT LeftArmRoll
            {
              OFFSET 0 7.01789 0
              CHANNELS 3 Zrotation Xrotation Yrotation
              JOINT LeftForeArm
              {
                OFFSET 0 20.4406 0
                CHANNELS 3 Zrotation Xrotation Yrotation
                JOINT LeftForeArmRoll
                {
                  OFFSET 0 7.87515 0
                  CHANNELS 3 Zrotation Xrotation Yrotation
                  JOINT LeftHand
                  {
                    OFFSET 0 15.8037 0
                    CHANNELS 3 Zrotation Xrotation Yrotation
                    End Site
                    {
                      OFFSET 0 0 0
                    }
                  }
                }
              }
            }
          }
        }
      }
    }
  }
  JOINT RightUpLeg
  {
    OFFSET -7.06048 -1.2947 -1.0861
    CHANNELS 3 Zrotation Xrotation Yrotation
    JOINT RightUpLegRoll
    {
      OFFSET 0 18.5308 0
      CHANNELS 3 Zrotation Xrotation Yrotation
      JOINT RightLeg
      {
        OFFSET 0 -22.9476 0
        CHANNELS 3 Zrotation Xrotation Yrotation
        JOINT RightLegRoll
        {
          OFFSET 0 23.0226 0
          CHANNELS 3 Zrotation Xrotation Yrotation
          JOINT RightFoot
          {
            OFFSET 0 19.1625 0
            CHANNELS 3 Zrotation Xrotation Yrotation
            JOINT RightToeBase
            {
              OFFSET 0 16.0188 0
              CHANNELS 3 Zrotation Xrotation Yrotation
              End Site
              {
                OFFSET 0.00678979 7.75782 -0.894206
              }
            }
          }
        }
      }
    }
  }
  JOINT LeftUpLeg
  {
    OFFSET 7.06048 -1.2947 -1.0861
    CHANNELS 3 Zrotation Xrotation Yrotation
    JOINT LeftUpLegRoll
    {
      OFFSET 0 18.5309 0
      CHANNELS 3 Zrotation Xrotation Yrotation
      JOINT LeftLeg
      {
        OFFSET 0 22.9475 0
        CHANNELS 3 Zrotation Xrotation Yrotation
        JOINT LeftLegRoll
        {
          OFFSET 0 23.2355 0
          CHANNELS 3 Zrotation Xrotation Yrotation
          JOINT LeftFoot
          {
            OFFSET 0 18.9496 0
            CHANNELS 3 Zrotation Xrotation Yrotation
            JOINT LeftToeBase
            {
              OFFSET 0 16.0188 0
              CHANNELS 3 Zrotation Xrotation Yrotation
              End Site
              {
                OFFSET -0.0304289 7.75782 -0.894206
              }
            }
          }
        }
      }
    }
  }
}
MOTION
Frames: 5
Frame Time: 0.00208333
84.6783 94.4209 16.6446 -10.3132 -6.70693 100.975 -0.846169 -0.872573 1.28754 -1.67869 2.23809 2.67118 -1.71242 3.882 2.7013 -38.547 3.40698 -3.99923 44.8531 7.10099 -9.86009 12.0402 8.35853 19.8254 129.366 74.5603 -21.1314 -7.52102e-006 -5.33935e-008 -7.20063e-006 -4.14769 23.1611 1.8612 -2.02938e-006 -2.67398e-006 -3.00747 8.02917 -4.95097 0.697496 -94.735 -4.5853 4.99872 -61.2394 -14.1888 39.8923 2.25476e-006 9.81456e-007 -7.90843e-006 110.593 85.4385 -94.7994 1.35821e-005 2.7576e-005 2.99999 -8.02923 -4.95098 -0.697525 -176.564 -11.3416 -3.86784 180 7.01539e-015 178.891 177.173 7.11945 179.649 -2.2159e-006 2.7903e-007 0.0444635 -16.932 65.8544 17.9231 8.3028 26.9727 -4.91986 178.627 30.4713 9.74434 4.5067e-006 -1.99009e-005 -0.614899 1.80515 -12.9188 0.690695 -6.84131e-006 1.25732e-006 -0.536348 21.1566 70.7759 -22.171 -8.13634 25.2327 3.48767 
84.7101 94.4235 16.6561 -10.3803 -6.68134 101.12 -0.83993 -0.85808 1.29711 -1.66617 2.2671 2.68981 -1.70013 3.91101 2.71975 -38.8555 3.18859 -4.09482 44.9956 7.222 -9.98969 11.9922 8.59481 20.1692 130.567 74.1468 -22.2751 -7.52102e-006 -5.33935e-008 -7.20063e-006 -3.93521 23.06 1.75387 -2.02938e-006 -2.67398e-006 -3.00747 8.02917 -4.95097 0.697496 -94.818 -4.5979 5.00607 -61.2564 -14.0895 39.7593 2.25476e-006 9.81456e-007 -7.90843e-006 110.866 85.482 -95.1202 1.35821e-005 2.7576e-005 2.99999 -8.02923 -4.95098 -0.697525 -176.616 -11.2384 -3.87305 180 7.0154e-015 178.894 177.184 7.06122 179.648 -2.2159e-006 2.7903e-007 0.0430871 -16.9269 65.8474 17.9188 8.32757 27.1902 -5.03427 178.53 30.5277 9.82489 4.5067e-006 -1.99009e-005 -0.614991 1.80904 -12.9171 0.691975 -6.84131e-006 1.25732e-006 -0.536263 21.1755 70.7981 -22.195 -8.13633 25.2327 3.48767 
84.7445 94.4115 16.6684 -10.4468 -6.65536 101.268 -0.834207 -0.842162 1.30678 -1.65485 2.29895 2.7087 -1.68904 3.94285 2.73849 -39.1531 2.94574 -4.20352 45.1322 7.36239 -10.1297 11.9502 8.80133 20.4723 131.837 73.748 -23.4782 -7.52102e-006 -5.33935e-008 -7.20063e-006 -3.73488 22.9518 1.65301 -2.02938e-006 -2.67398e-006 -3.00747 8.02917 -4.95097 0.697496 -94.8934 -4.61728 5.01465 -61.2774 -13.9807 39.6355 2.25476e-006 9.81456e-007 -7.90843e-006 111.142 85.522 -95.4399 1.35821e-005 2.7576e-005 2.99999 -8.02923 -4.95098 -0.697525 -176.667 -11.1362 -3.87771 180 7.01541e-015 178.897 177.194 7.00812 179.647 -2.2159e-006 2.7903e-007 0.0418136 -16.9223 65.8414 17.9151 8.35458 27.4232 -5.14059 178.429 30.5866 9.90823 4.5067e-006 -1.99009e-005 -0.615171 1.8126 -12.9234 0.693425 -6.84131e-006 1.25732e-006 -0.536771 21.1947 70.8182 -22.2169 -8.13633 25.2327 3.48766 
84.7651 94.4338 16.6772 -10.5123 -6.62884 101.421 -0.829055 -0.824573 1.31652 -1.64485 2.33412 2.72784 -1.67928 3.97802 2.7575 -39.4391 2.67448 -4.32691 45.263 7.52511 -10.2816 11.9184 8.97465 20.728 133.2 73.3662 -24.7615 -7.52102e-006 -5.33935e-008 -7.20063e-006 -3.54839 22.8373 1.55967 -2.02938e-006 -2.67398e-006 -3.00747 8.02917 -4.95097 0.697496 -94.9599 -4.64441 5.02465 -61.303 -13.8619 39.5228 2.25476e-006 9.81456e-007 -7.90843e-006 111.418 85.5581 -95.7558 1.35821e-005 2.7576e-005 2.99999 -8.02923 -4.95098 -0.697525 -176.717 -11.0358 -3.88201 180 7.01542e-015 178.9 177.204 6.96001 179.646 -2.2159e-006 2.7903e-007 0.040639 -16.9182 65.8365 17.912 8.3838 27.6723 -5.23705 178.323 30.6482 9.99434 4.5067e-006 -1.99009e-005 -0.615459 1.81559 -12.9391 0.695048 -6.84131e-006 1.25732e-006 -0.537995 21.2144 70.8359 -22.2365 -8.13632 25.2327 3.48766 
84.7941 94.4176 16.6858 -10.5799 -6.60121 101.576 -0.82476 -0.805492 1.3266 -1.63676 2.37225 2.74781 -1.67144 4.01614 2.77736 -39.711 2.36428 -4.47037 45.3829 7.71887 -10.4497 11.8884 9.10797 20.9302 134.682 72.9948 -26.1597 -7.52102e-006 -5.33935e-008 -7.20063e-006 -3.36603 22.7152 1.47037 -2.02938e-006 -2.67398e-006 -3.00747 8.02917 -4.95097 0.697496 -95.0156 -4.68201 5.0366 -61.3345 -13.7278 39.4232 2.25476e-006 9.81456e-007 -7.90843e-006 111.693 85.5902 -96.0648 1.35821e-005 2.7576e-005 2.99999 -8.02923 -4.95098 -0.697525 -176.768 -10.9321 -3.88461 180 7.01542e-015 178.903 177.214 6.91981 179.645 -2.2159e-006 2.7903e-007 0.039621 -16.9149 65.833 17.9098 8.41626 27.9476 -5.32486 178.212 30.7157 10.0844 4.5067e-006 -1.99009e-005 -0.615803 1.81812 -12.9635 0.696786 -6.84131e-006 1.25732e-006 -0.539753 21.2336 70.851 -22.2534 -8.13632 25.2327 3.48766 
